<svg width="36" height="36" viewBox="0 0 36 36" fill="none" xmlns="http://www.w3.org/2000/svg">
<path d="M4 6C4 5.44772 4.44772 5 5 5H9.36364C9.84026 5 10.2506 5.33639 10.3442 5.80374L11.5844 12H28.5C28.7935 12 29.0721 12.1289 29.2621 12.3525C29.4521 12.5762 29.5343 12.872 29.4869 13.1616L28.2414 20.7688L28.2381 20.788L28.2354 20.8021C28.0899 21.5345 27.6914 22.1925 27.1097 22.6607C26.5308 23.1268 25.807 23.3754 25.064 23.3636H14.4778C13.7348 23.3754 13.0111 23.1268 12.4321 22.6607C11.8506 22.1927 11.4522 21.535 11.3066 20.8029L9.78818 13.2165C9.78538 13.2038 9.78281 13.191 9.78049 13.1781L8.54395 7H5C4.44772 7 4 6.55228 4 6Z" fill="white"/>
<path d="M11.6364 27.8182C11.6364 26.6634 12.5725 25.7273 13.7273 25.7273C14.882 25.7273 15.8182 26.6634 15.8182 27.8182C15.8182 28.973 14.882 29.9091 13.7273 29.9091C12.5725 29.9091 11.6364 28.973 11.6364 27.8182Z" fill="white"/>
<path d="M23.6364 27.8182C23.6364 26.6634 24.5725 25.7273 25.7273 25.7273C26.8821 25.7273 27.8182 26.6634 27.8182 27.8182C27.8182 28.973 26.8821 29.9091 25.7273 29.9091C24.5725 29.9091 23.6364 28.973 23.6364 27.8182Z" fill="white"/>
</svg>
