<svg width="30" height="30" viewBox="0 0 30 30" fill="none" xmlns="http://www.w3.org/2000/svg">
<path d="M4.16669 5H7.80305L10.2394 17.1727C10.3225 17.5913 10.5502 17.9672 10.8826 18.2348C11.215 18.5024 11.631 18.6445 12.0576 18.6364H20.894C21.3206 18.6445 21.7365 18.5024 22.0689 18.2348C22.4013 17.9672 22.629 17.5913 22.7121 17.1727L23.75 10.8333H8.97059M12.3485 23.1818C12.3485 23.6839 11.9415 24.0909 11.4394 24.0909C10.9373 24.0909 10.5303 23.6839 10.5303 23.1818C10.5303 22.6797 10.9373 22.2727 11.4394 22.2727C11.9415 22.2727 12.3485 22.6797 12.3485 23.1818ZM22.3485 23.1818C22.3485 23.6839 21.9415 24.0909 21.4394 24.0909C20.9373 24.0909 20.5303 23.6839 20.5303 23.1818C20.5303 22.6797 20.9373 22.2727 21.4394 22.2727C21.9415 22.2727 22.3485 22.6797 22.3485 23.1818Z" stroke="white" stroke-width="1.66667" stroke-linecap="round" stroke-linejoin="round"/>
<path d="M24.1666 10.8333H9.58331L11.25 19.1666H22.0833L24.1666 10.8333Z" fill="white"/>
</svg>
