<svg width="24" height="24" viewBox="0 0 24 24" fill="none" xmlns="http://www.w3.org/2000/svg">
<path d="M6.72 3.57895C6.72 2.70692 7.39864 2 8.23579 2H22.4842C23.3214 2 24 2.70692 24 3.57895C24 4.45098 23.3214 5.15789 22.4842 5.15789H8.23579C7.39864 5.15789 6.72 4.45098 6.72 3.57895Z" fill="white"/>
<path d="M0 12C0 11.128 0.678642 10.4211 1.51579 10.4211H22.4842C23.3214 10.4211 24 11.128 24 12C24 12.872 23.3214 13.5789 22.4842 13.5789H1.51579C0.678641 13.5789 0 12.872 0 12Z" fill="white"/>
<path d="M0 20.4211C0 19.549 0.678642 18.8421 1.51579 18.8421H22.4842C23.3214 18.8421 24 19.549 24 20.4211C24 21.2931 23.3214 22 22.4842 22H1.51579C0.678641 22 0 21.2931 0 20.4211Z" fill="white"/>
<path d="M0 3.57895C0 2.70692 0.678642 2 1.51579 2H3.28421C4.12136 2 4.8 2.70692 4.8 3.57895C4.8 4.45098 4.12136 5.15789 3.28421 5.15789H1.51579C0.678642 5.15789 0 4.45098 0 3.57895Z" fill="white"/>
</svg>
