<svg width="155" height="50" viewBox="0 0 155 50" fill="none" xmlns="http://www.w3.org/2000/svg">
<g clip-path="url(#clip0_200_3957)">
<path d="M136.911 41.0103H139.287C141.984 41.0103 143.589 39.4585 143.589 35.959C143.589 32.8554 142.038 31.3571 139.287 31.3571H136.911V41.0103ZM130.758 44.9594V27.4508H139.887C146.768 27.4508 150.364 30.7471 150.364 35.9054C150.364 41.6096 146.714 44.9594 139.887 44.9594H130.758ZM117.081 38.3348H121.008L119.06 32.1062L117.081 38.3348ZM109.396 44.9594L115.721 27.4508H123.48L129.805 44.9594H123.181L122.132 41.7595H115.957L114.908 44.9594H109.407H109.396ZM94.1567 44.9594V27.4508H100.439V40.6358H109.118V44.9594H94.1567ZM73.78 44.9594V27.4508H79.9872V31.3036C79.9872 32.3524 79.9337 33.658 79.8909 34.7817L85.8733 27.4508H92.1233L85.3168 35.1563L93.1721 44.9594H85.67L79.8909 37.2004C79.9444 38.3241 79.9872 39.6298 79.9872 40.6786V44.9594H73.78ZM62.8425 45.2804C56.7637 45.2804 54.238 43.3541 53.3605 41.5989L59.4606 39.9508C60.0064 41.1066 61.066 41.8986 63.185 41.8986C65.304 41.8986 65.8605 41.2244 65.8605 40.3254C65.8605 39.5763 65.3896 39.1268 64.1374 38.9234L60.1563 38.3455C55.8541 37.7462 53.8528 35.9911 53.8528 32.8447C53.8528 29.6983 56.357 27.1191 62.9602 27.1191C68.6109 27.1191 70.7192 29.0668 71.0403 31.2501L65.6892 31.6781C65.4645 30.7257 64.8866 30.1477 62.8853 30.1477C60.7556 30.1477 60.1349 30.7685 60.1349 31.6032C60.1349 32.2989 60.563 32.7483 61.9114 32.9517L65.6143 33.551C70.0664 34.2252 72.1426 35.8733 72.1426 39.2338C72.1426 42.8618 69.6704 45.2911 62.8425 45.2911V45.2804ZM139.052 24.9465V7.43799H145.334V20.6229H154.013V24.9465H139.052ZM120.783 24.9465V7.43799H137.018V11.3442H126.937V14.0198H135.146V17.7227H126.937V21.051H137.018V24.9572H120.783V24.9465ZM106.346 14.2445H110.574C111.772 14.2445 112.479 13.5917 112.479 12.5215C112.479 11.5155 111.783 10.8412 110.574 10.8412H106.346V14.2445ZM106.346 21.4256H110.852C112.179 21.4256 112.95 20.6764 112.95 19.4778C112.95 18.3541 112.179 17.6049 110.852 17.6049H106.346V21.4363V21.4256ZM100.289 24.9572V7.43799H112.275C116.524 7.43799 118.525 9.46068 118.525 12.0399C118.525 13.9876 117.348 15.2398 115.679 15.8177C117.551 16.3635 119.082 17.6906 119.082 20.1199C119.082 22.8918 117.102 24.9465 112.832 24.9465H100.3L100.289 24.9572ZM82.0206 24.9572V7.43799H98.2556V11.3442H88.1743V14.0198H96.3827V17.7227H88.1743V21.051H98.2556V24.9572H82.0206ZM54.3237 24.9572V7.43799H63.2064L67.134 16.7381H67.1554L71.1366 7.43799H79.6661V24.9465H73.5338V12.468H73.5124L68.1614 24.9465H64.4371L59.2359 12.468H59.2145V24.9465H54.3344L54.3237 24.9572Z" fill="black"/>
<path d="M21.982 39.0091L5.54366 30.2441L0 33.2086V38.3028L21.982 50.0001L43.964 38.3028V33.2086L38.4204 30.2441L21.982 39.0091Z" fill="#E20413"/>
<path d="M43.964 11.6866L21.982 0L0 11.6866V16.8129L5.29752 19.6276L0 22.4636V27.5578L21.982 39.2444L43.964 27.5578V22.4636L38.6772 19.6383L43.964 16.8236V11.6866ZM42.0912 15.6892C35.7663 18.9961 22.1961 26.2628 21.982 26.3806L1.87286 15.6892V12.8211L21.982 2.11901L42.0912 12.8104V15.6785V15.6892Z" fill="#0056A3"/>
</g>
<defs>
<clipPath id="clip0_200_3957">
<rect width="155" height="50" fill="white"/>
</clipPath>
</defs>
</svg>
