<svg width="36" height="36" viewBox="0 0 36 36" fill="none" xmlns="http://www.w3.org/2000/svg">
<path fill-rule="evenodd" clip-rule="evenodd" d="M16.1538 8.30781C11.8205 8.30781 8.30768 11.8206 8.30768 16.154C8.30768 20.4873 11.8205 24.0001 16.1538 24.0001C20.4871 24.0001 24 20.4873 24 16.154C24 11.8206 20.4871 8.30781 16.1538 8.30781ZM5.53845 16.154C5.53845 10.2912 10.2911 5.53857 16.1538 5.53857C22.0166 5.53857 26.7692 10.2912 26.7692 16.154C26.7692 18.5862 25.9512 20.8273 24.5754 22.6174L30.056 28.098L28.0978 30.0561L22.6172 24.5755C20.8272 25.9514 18.586 26.7693 16.1538 26.7693C10.2911 26.7693 5.53845 22.0167 5.53845 16.154Z" fill="white"/>
</svg>
