<svg width="40" height="40" viewBox="0 0 40 40" fill="none" xmlns="http://www.w3.org/2000/svg">
<path d="M9.0532 19.7885C14.8836 17.2482 18.7715 15.5736 20.7167 14.7645C26.271 12.4543 27.4251 12.053 28.1773 12.0396C28.3428 12.0368 28.7127 12.0778 28.9523 12.2722C29.1546 12.4364 29.2103 12.6582 29.237 12.8139C29.2636 12.9695 29.2968 13.3241 29.2704 13.6012C28.9694 16.7637 27.6671 24.4382 27.0045 27.9802C26.7241 29.479 26.1721 29.9815 25.6377 30.0307C24.4762 30.1375 23.5943 29.2631 22.4694 28.5257C20.7091 27.3718 19.7147 26.6535 18.0061 25.5276C16.0314 24.2263 17.3115 23.5111 18.4368 22.3423C18.7313 22.0364 23.8487 17.3818 23.9477 16.9596C23.9601 16.9068 23.9716 16.7099 23.8546 16.606C23.7377 16.5021 23.5651 16.5376 23.4406 16.5659C23.264 16.6059 20.452 18.4646 15.0044 22.1418C14.2063 22.6899 13.4833 22.957 12.8355 22.943C12.1214 22.9276 10.7478 22.5392 9.7266 22.2073C8.4741 21.8001 7.47864 21.5849 7.56532 20.8934C7.61047 20.5333 8.10643 20.165 9.0532 19.7885Z" fill="white"/>
</svg>
