<svg width="110" height="110" viewBox="0 0 110 110" fill="none" xmlns="http://www.w3.org/2000/svg">
<path d="M74.36 18.15C72.05 15.29 68.97 13.53 65.45 13.31C41.03 11.44 30.58 28.27 30.14 29.04C29.92 29.48 29.92 30.03 30.14 30.47C30.36 30.91 30.91 31.13 31.46 31.13C43.45 30.36 49.61 34.43 54.56 37.73C56.76 39.16 58.74 40.48 60.94 41.14C62.04 41.47 63.14 41.69 64.24 41.69C66.33 41.69 68.42 41.03 70.4 39.82C70.95 39.49 71.39 39.16 71.94 38.72L69.3 37.29L50.27 26.18C59.62 26.51 66.99 29.26 72.38 34.32C73.04 34.98 73.7 35.64 74.36 36.41C76.01 38.28 77.33 40.37 78.54 42.68C79.09 43.78 79.64 44.99 80.08 46.2C80.3 46.75 80.85 47.08 81.4 47.08C81.62 47.08 81.73 47.08 81.95 46.97C82.72 46.64 83.05 45.87 82.72 45.1C81.07 40.7 78.76 36.96 75.9 33.88C76.56 32.45 77.11 31.02 77.33 29.48C77.99 25.52 76.89 21.34 74.36 18.15Z" fill="#0056A3"/>
<path d="M95.48 51.48C95.26 51.04 94.82 50.71 94.16 50.71C93.61 50.71 93.17 51.04 92.95 51.48C87.67 62.26 81.07 65.56 75.79 68.2C73.48 69.41 71.28 70.51 69.63 72.05C67.21 74.25 65.89 77.44 66 80.96C66 81.62 66.11 82.17 66.22 82.83L68.86 81.29L88 70.4C82.94 78.32 77 83.27 69.96 85.47C69.08 85.69 68.09 86.02 67.21 86.13C64.79 86.57 62.26 86.79 59.62 86.57C58.41 86.46 57.09 86.35 55.88 86.13C55.11 86.02 54.34 86.57 54.23 87.34C54.12 88.11 54.67 88.88 55.44 88.99C57.53 89.32 59.51 89.43 61.49 89.43C63.91 89.43 66.33 89.21 68.53 88.66C69.41 89.98 70.4 91.19 71.61 92.07C74.25 94.16 77.44 95.37 80.85 95.37C81.51 95.37 82.28 95.26 82.94 95.26C84.81 95.04 86.46 94.38 87.89 93.5C89.32 92.62 90.64 91.41 91.63 89.98C105.27 69.63 95.92 52.14 95.48 51.48Z" fill="#0056A3"/>
<path d="M20.24 55.77C16.5 57.2 13.42 60.17 11.88 64.02C10.56 67.43 10.67 71.06 12.1 74.14C22.77 96.14 42.57 96.8 43.45 96.8C44 96.8 44.44 96.58 44.66 96.03C44.88 95.59 44.88 95.04 44.55 94.6C37.84 84.59 38.28 77.22 38.72 71.28C38.83 68.75 39.05 66.22 38.5 64.02C37.84 60.83 35.75 58.08 32.67 56.43C32.12 56.1 31.57 55.88 31.02 55.66V58.74L30.91 80.74C26.51 72.49 25.19 64.79 26.95 57.64C27.17 56.76 27.39 55.77 27.72 54.89C28.49 52.58 29.59 50.38 31.13 48.07C31.79 47.08 32.56 45.98 33.33 44.99C33.77 44.33 33.77 43.45 33.11 43.01C32.45 42.57 31.57 42.68 31.13 43.23C28.16 46.86 26.07 50.71 24.86 54.67C23.21 54.89 21.67 55.22 20.24 55.77Z" fill="#0056A3"/>
</svg>
