<svg width="110" height="110" viewBox="0 0 110 110" fill="none" xmlns="http://www.w3.org/2000/svg">
<path fill-rule="evenodd" clip-rule="evenodd" d="M54.7818 18.8183C65.2473 18.8183 73.7312 27.3022 73.7312 37.7675C73.7312 48.233 65.2473 56.7167 54.7818 56.7167C44.3163 56.7167 35.8328 48.233 35.8328 37.7675C35.8328 27.3025 44.3163 18.8183 54.7818 18.8183ZM56.5006 72.5623V108.123L91.5781 94.4841V72.246L64.1503 82.9109C63.3526 83.2194 62.4651 82.8898 62.0502 82.1716L56.5006 72.5623ZM53.0631 108.123V72.5623L47.5149 82.1723C47.0724 82.9358 46.1311 83.2306 45.342 82.8828L17.986 72.246V94.4839L53.0631 108.123ZM92.546 53.3102L57.2654 67.0284L64.2828 79.1829L99.5636 65.4647L92.546 53.3102ZM52.2982 67.0284L17.0174 53.3102L10 65.4647L45.281 79.1829L52.2982 67.0284ZM54.7818 60.1542C45.371 60.1542 37.3165 54.3474 34.0058 46.1213L20.9942 51.1804L54.7818 64.3181L88.5694 51.1804L75.5579 46.1213C72.2473 54.3472 64.1928 60.1542 54.7818 60.1542ZM89.3783 36.5012C90.3279 36.5012 91.0971 37.2708 91.0971 38.22C91.0971 39.1691 90.3279 39.9387 89.3783 39.9387H81.3288C80.3796 39.9387 79.61 39.1691 79.61 38.22C79.61 37.2708 80.3796 36.5012 81.3288 36.5012H89.3783ZM53.0631 2.71875C53.0631 1.76957 53.8326 1 54.7818 1C55.731 1 56.5006 1.76957 56.5006 2.71875V10.7687C56.5006 11.7179 55.731 12.4875 54.7818 12.4875C53.8326 12.4875 53.0631 11.7179 53.0631 10.7687V2.71875ZM35.7129 8.04064C35.2422 7.22145 35.5247 6.17516 36.3441 5.70422C37.1636 5.2335 38.2098 5.51602 38.6806 6.33543L42.7054 13.3069C43.1764 14.1263 42.8939 15.1726 42.0742 15.6433C41.255 16.114 40.2085 15.8317 39.7378 15.0121L35.7129 8.04064ZM23.3431 21.3352C22.5237 20.8606 22.2442 19.8113 22.7188 18.9921C23.1931 18.1729 24.2424 17.893 25.0618 18.3678L32.0331 22.3926C32.8523 22.8672 33.132 23.9165 32.6574 24.7357C32.183 25.5549 31.1335 25.8346 30.3143 25.3601L23.3431 21.3352ZM19.2806 39.034C18.3314 39.034 17.5619 38.2644 17.5619 37.3153C17.5619 36.3661 18.3314 35.5965 19.2806 35.5965H27.3304C28.2798 35.5965 29.0491 36.3661 29.0491 37.3153C29.0491 38.2644 28.2798 39.034 27.3304 39.034H19.2806ZM70.7619 6.78768C71.2326 5.96848 72.2791 5.68574 73.0985 6.15646C73.9177 6.62719 74.2005 7.67369 73.7297 8.49289L69.7049 15.4644C69.2339 16.2838 68.1876 16.5663 67.3684 16.0956C66.549 15.6248 66.2663 14.5786 66.7372 13.7591L70.7619 6.78768ZM84.0498 19.1511C84.8692 18.6763 85.9183 18.9562 86.3929 19.7754C86.8674 20.5946 86.5875 21.6439 85.7685 22.1185L78.7971 26.1434C77.9779 26.618 76.9286 26.3382 76.454 25.519C75.9794 24.6998 76.2593 23.6505 77.0783 23.176L84.0498 19.1511ZM61.9567 29.1261L50.7318 40.3512L46.9011 35.5305C45.9588 34.345 44.2341 34.1482 43.0488 35.0903C41.8633 36.0329 41.6662 37.7574 42.6088 38.9429L48.2458 46.0368C49.2206 47.4331 51.2279 47.6241 52.4426 46.4092L65.8411 33.0109C66.9134 31.9381 66.9134 30.199 65.8411 29.1261C64.7686 28.0536 63.0294 28.0536 61.9567 29.1261Z" fill="#E20413"/>
</svg>
