<svg width="110" height="110" viewBox="0 0 110 110" fill="none" xmlns="http://www.w3.org/2000/svg">
<path d="M29.8965 71.1543V89.7598H26.459V101.898H12C12 101.898 13.418 83.0352 17.2207 78.3516C19.2187 75.8809 24.5469 73.3027 29.8965 71.1543Z" fill="#0056A3"/>
<path d="M36.7715 96.5914H31.6152C30.6699 96.5914 29.8965 95.7966 29.918 94.8514C29.918 93.9062 30.6914 93.1543 31.6152 93.1543H36.7715C37.7168 93.1543 38.4902 93.9491 38.4688 94.8943C38.4688 95.818 37.7168 96.5699 36.7715 96.5914Z" fill="#0056A3"/>
<path d="M66.8496 66.5781C66.6777 64.8594 66.7207 64.2793 66.3984 61.5078C66.3984 61.4863 66.3984 61.4434 66.377 61.4219C61.1348 65.6113 50.6289 68.2539 43.3672 61.7871C43.0449 65.0098 43.1309 64.8809 42.9805 66.5996C42.25 66.8145 40.6172 67.3086 38.4902 68.0176V89.7598H71.1465V67.9746C69.084 67.2871 67.5371 66.793 66.8496 66.5781Z" fill="#0056A3"/>
<path d="M78.0215 96.5914H72.8652C71.9199 96.5914 71.1465 95.7966 71.168 94.8514C71.168 93.9062 71.9414 93.1543 72.8652 93.1543H78.0215C78.9668 93.1543 79.7402 93.9491 79.7187 94.8943C79.7187 95.818 78.9668 96.5699 78.0215 96.5914Z" fill="#0056A3"/>
<path d="M83.1777 101.898V89.7598H79.7402V71.2188C85.2402 73.4746 90.8477 76.2461 92.8672 78.8242C96.5195 83.4434 97.6367 101.898 97.6367 101.898H83.1777Z" fill="#0056A3"/>
<path d="M75.4004 39.5293C75.0566 42.1504 73.6172 44.5137 71.4258 46.0176C70.7383 50.2715 68.7832 54.2461 65.7969 57.3828C60.3398 62.8398 50.1992 64.8594 43.9902 57.5117C41.1543 54.3105 39.2422 50.3789 38.5117 46.1465C36.1055 44.75 34.5371 42.3008 34.2578 39.5508C41.1113 40.3887 48.0078 40.7969 54.9043 40.7754C61.7363 40.7754 68.5898 40.3672 75.4004 39.5293Z" fill="#0056A3"/>
<path d="M74.7129 30.3984C74.7559 29.9473 74.7773 29.4961 74.7773 29.0449C74.5625 20.752 68.9121 13.5977 60.9199 11.4707L60.9844 10.998C60.9844 9.90234 60.1035 9.02148 59.0293 9H50.9297C49.834 9 48.9531 9.90234 48.9746 10.998L49.0176 11.3633C40.8105 13.3613 34.9453 20.623 34.7305 29.0664C34.7305 29.5176 34.752 29.9902 34.7949 30.4414C33.3125 30.5703 32.1738 31.8379 32.2168 33.3203C32.3027 34.8887 33.5488 36.1563 35.1172 36.2207C41.6914 36.9512 48.2871 37.3379 54.9043 37.3379C61.4785 37.3379 68.0312 36.9512 74.541 36.2207C76.1094 36.1348 77.377 34.8887 77.4414 33.3203C77.4629 31.752 76.2598 30.4629 74.7129 30.3984ZM41.8848 16.4766C42.1855 16.2188 42.5078 16.0039 42.8301 15.7676C43.6035 15.2305 44.6777 15.4238 45.2148 16.1973C45.752 16.9707 45.5586 18.0449 44.7852 18.582C44.5273 18.7754 44.291 18.9473 44.0547 19.1406C43.3242 19.7207 42.2285 19.6133 41.6484 18.8613C41.0469 18.1309 41.1543 17.0566 41.8848 16.4766ZM36.6641 24.4473C37.0293 22.9434 37.6523 21.5039 38.5117 20.1934C39.0273 19.3984 40.1016 19.1621 40.8965 19.6992C41.6914 20.2148 41.9062 21.2676 41.4121 22.0625C40.7676 23.0508 40.3164 24.1465 40.0156 25.2852C39.7793 26.209 38.8555 26.7676 37.9316 26.5312C37.0078 26.2949 36.4492 25.3711 36.6641 24.4473ZM68.7617 32.5469C66.8281 32.7617 60.1895 33.4277 54.7969 33.4277C51.166 33.4277 45.9883 33.1055 40.875 32.5469C39.9297 32.4395 39.2637 31.5801 39.3711 30.6348C39.4785 29.7109 40.3164 29.0449 41.2402 29.1309C46.2031 29.668 51.2734 29.9902 54.7754 29.9902C58.9219 29.9902 64.5078 29.5391 68.3535 29.1309C69.2988 29.0449 70.1367 29.7324 70.2227 30.6777C70.3516 31.6016 69.6855 32.418 68.7617 32.5469Z" fill="#0056A3"/>
</svg>
