<svg width="110" height="110" viewBox="0 0 110 110" fill="none" xmlns="http://www.w3.org/2000/svg">
<path d="M102.941 54L95.3438 36.8125C95.0777 36.203 94.6406 35.6837 94.0854 35.3176C93.5302 34.9515 92.8807 34.7543 92.2156 34.75H73.825L74.925 24.8156C74.9791 24.3334 74.9305 23.8451 74.7824 23.383C74.6343 22.9208 74.39 22.4953 74.0656 22.1344C73.7442 21.7783 73.3519 21.4934 72.9138 21.298C72.4757 21.1026 72.0016 21.0011 71.5219 21H24.1875C23.2758 21 22.4015 21.3622 21.7568 22.0068C21.1122 22.6515 20.75 23.5258 20.75 24.4375C20.75 25.3492 21.1122 26.2235 21.7568 26.8682C22.4015 27.5128 23.2758 27.875 24.1875 27.875H41.375C42.2867 27.875 43.161 28.2372 43.8057 28.8818C44.4503 29.5265 44.8125 30.4008 44.8125 31.3125C44.8125 32.2242 44.4503 33.0985 43.8057 33.7432C43.161 34.3878 42.2867 34.75 41.375 34.75H17.3125C16.4008 34.75 15.5265 35.1122 14.8818 35.7568C14.2372 36.4015 13.875 37.2758 13.875 38.1875C13.875 39.0992 14.2372 39.9735 14.8818 40.6182C15.5265 41.2628 16.4008 41.625 17.3125 41.625H51.6875C52.5992 41.625 53.4735 41.9872 54.1182 42.6318C54.7628 43.2765 55.125 44.1508 55.125 45.0625C55.125 45.9742 54.7628 46.8485 54.1182 47.4932C53.4735 48.1378 52.5992 48.5 51.6875 48.5H27.625C26.7133 48.5 25.839 48.8622 25.1943 49.5068C24.5497 50.1515 24.1875 51.0258 24.1875 51.9375C24.1875 52.8492 24.5497 53.7235 25.1943 54.3682C25.839 55.0128 26.7133 55.375 27.625 55.375H41.375C42.2867 55.375 43.161 55.7372 43.8057 56.3818C44.4503 57.0265 44.8125 57.9008 44.8125 58.8125C44.8125 59.7242 44.4503 60.5985 43.8057 61.2432C43.161 61.8878 42.2867 62.25 41.375 62.25H13.875C12.9633 62.25 12.089 62.6122 11.4443 63.2568C10.7997 63.9015 10.4375 64.7758 10.4375 65.6875C10.4375 66.5992 10.7997 67.4735 11.4443 68.1182C12.089 68.7628 12.9633 69.125 13.875 69.125H20.75C21.6617 69.125 22.536 69.4872 23.1807 70.1318C23.8253 70.7765 24.1875 71.6508 24.1875 72.5625C24.1875 73.4742 23.8253 74.3485 23.1807 74.9932C22.536 75.6378 21.6617 76 20.75 76H17.3125C16.4008 76 15.5265 76.3622 14.8818 77.0068C14.2372 77.6515 13.875 78.5258 13.875 79.4375C13.875 80.3492 14.2372 81.2235 14.8818 81.8682C15.5265 82.5128 16.4008 82.875 17.3125 82.875H27.1094C27.4806 84.3247 28.187 85.667 29.1719 86.7937C30.0064 87.7268 31.0291 88.4727 32.1726 88.9822C33.316 89.4917 34.5544 89.7534 35.8062 89.75C37.9246 89.6895 39.9779 89.0047 41.7086 87.7816C43.4392 86.5586 44.7702 84.8516 45.5344 82.875H71.7969C72.1681 84.3247 72.8745 85.667 73.8594 86.7937C74.6939 87.7268 75.7166 88.4727 76.86 88.9822C78.0035 89.4917 79.2419 89.7534 80.4937 89.75C82.6121 89.6895 84.6654 89.0047 86.3961 87.7816C88.1267 86.5586 89.4576 84.8516 90.2219 82.875H97.0969C97.9467 82.8802 98.7683 82.5703 99.4031 82.0054C100.038 81.4404 100.441 80.6603 100.534 79.8156L103.181 55.7531C103.275 55.1578 103.192 54.5479 102.941 54ZM35.8062 82.875C35.5212 82.8873 35.2371 82.835 34.9751 82.7218C34.7132 82.6087 34.4802 82.4378 34.2937 82.2219C34.0239 81.888 33.8265 81.5017 33.7141 81.0875C33.6016 80.6732 33.5766 80.2401 33.6406 79.8156C33.7284 78.8505 34.1451 77.9448 34.821 77.2502C35.4968 76.5556 36.3907 76.1142 37.3531 76C37.6382 75.9877 37.9223 76.04 38.1843 76.1532C38.4462 76.2663 38.6791 76.4372 38.8656 76.6531C39.1355 76.987 39.3329 77.3733 39.4453 77.7875C39.5578 78.2018 39.5828 78.6349 39.5187 79.0594C39.431 80.0245 39.0143 80.9302 38.3384 81.6248C37.6626 82.3194 36.7686 82.7608 35.8062 82.875ZM80.4937 82.875C80.2087 82.8873 79.9246 82.835 79.6626 82.7218C79.4007 82.6087 79.1677 82.4378 78.9812 82.2219C78.7114 81.888 78.514 81.5017 78.4016 81.0875C78.2891 80.6732 78.2641 80.2401 78.3281 79.8156C78.4159 78.8505 78.8326 77.9448 79.5084 77.2502C80.1843 76.5556 81.0782 76.1142 82.0406 76C82.3257 75.9877 82.6098 76.04 82.8717 76.1532C83.1337 76.2663 83.3666 76.4372 83.5531 76.6531C83.823 76.987 84.0204 77.3733 84.1328 77.7875C84.2453 78.2018 84.2703 78.6349 84.2062 79.0594C84.1184 80.0245 83.7017 80.9302 83.0259 81.6248C82.3501 82.3194 81.4561 82.7608 80.4937 82.875ZM95.9625 58.8125H80.7687C80.2891 58.8114 79.8149 58.7099 79.3768 58.5145C78.9387 58.3191 78.5464 58.0342 78.225 57.6781C77.9006 57.3172 77.6563 56.8917 77.5082 56.4295C77.3601 55.9674 77.3115 55.4791 77.3656 54.9969L78.5 44.6844C78.6013 43.8459 79.0077 43.0741 79.6418 42.5162C80.2758 41.9583 81.093 41.6533 81.9375 41.6594H89.9469L96.375 55.925L95.9625 58.8125Z" fill="#E20413"/>
<path d="M13.875 55.3742C14.7867 55.3742 15.661 55.0121 16.3057 54.3675C16.9503 53.7229 17.3125 52.8487 17.3125 51.9371C17.3125 51.0255 16.9503 50.1513 16.3057 49.5067C15.661 48.8621 14.7867 48.5 13.875 48.5H10.4375C9.52582 48.5 8.65148 48.8621 8.00682 49.5067C7.36216 50.1513 7 51.0255 7 51.9371C7 52.8487 7.36216 53.7229 8.00682 54.3675C8.65148 55.0121 9.52582 55.3742 10.4375 55.3742H13.875Z" fill="#E20413"/>
</svg>
